<svg width="64" height="24" viewBox="0 0 64 24" fill="none" xmlns="http://www.w3.org/2000/svg">
<path fill-rule="evenodd" clip-rule="evenodd" d="M7.46727 9.0976C8.52386 8.48754 9.78547 8.4875 10.8421 9.09739L12.0999 9.82376C12.3475 9.96671 12.6525 9.96671 12.9 9.82376L14.1579 9.09739C15.2145 8.4875 16.4761 8.48754 17.5327 9.0976C18.5892 9.70765 19.22 10.8001 19.22 12.0201C19.22 12.9503 18.855 13.8124 18.1922 14.4478C17.5608 15.053 16.7034 15.4001 15.8399 15.4001C15.2499 15.4001 14.6839 15.2461 14.1578 14.9424L12.8999 14.2163C12.6524 14.0734 12.3475 14.0734 12.1 14.2163L10.8421 14.9424C10.316 15.2461 9.75006 15.4001 9.16001 15.4001C8.2965 15.4001 7.43914 15.053 6.80775 14.4478C6.14496 13.8124 5.77997 12.9503 5.77997 12.0201C5.77997 10.8001 6.41077 9.70765 7.46727 9.0976ZM12.0999 13.5019C12.3475 13.3589 12.6525 13.3589 12.9 13.5019L14.4672 14.4068C14.8981 14.6554 15.36 14.7814 15.8399 14.7814C17.168 14.7814 18.6013 13.7257 18.6013 12.0201C18.6013 11.2601 18.3039 10.5564 17.7639 10.0388C17.2469 9.54309 16.5457 9.25879 15.8399 9.25879C15.36 9.25879 14.8981 9.38482 14.4673 9.63339L12.9 10.5383C12.6525 10.6813 12.3475 10.6813 12.0999 10.5383L10.5327 9.63338C10.1018 9.38482 9.63998 9.25879 9.16001 9.25879C8.45427 9.25879 7.75299 9.54309 7.23603 10.0388C6.69603 10.5564 6.39867 11.2601 6.39867 12.0201C6.39867 13.7257 7.83198 14.7814 9.16001 14.7814C9.63998 14.7814 10.1018 14.6554 10.5327 14.4068L12.0999 13.5019ZM12.5 12.2017L9.91008 10.7115C9.66774 10.5716 9.42243 10.5036 9.16013 10.5036C8.77835 10.5036 8.38087 10.6658 8.09745 10.9375C7.80063 11.222 7.6437 11.5963 7.6437 12.0201C7.6437 13.0545 8.54866 13.5365 9.16021 13.5365C9.38285 13.5365 9.55887 13.4669 9.78448 13.3777L9.78453 13.3777C9.82462 13.3619 9.86628 13.3454 9.91004 13.3286L12.19 12.3703C12.3882 12.2869 12.6117 12.2869 12.81 12.3703L15.0899 13.3286C15.1337 13.3454 15.1753 13.3619 15.2155 13.3777C15.4411 13.4669 15.6171 13.5365 15.8397 13.5365C16.4513 13.5365 17.3562 13.0545 17.3562 12.0201C17.3562 11.5963 17.1993 11.222 16.9025 10.9375C16.6191 10.6658 16.2216 10.5036 15.8398 10.5036C15.5775 10.5036 15.3322 10.5716 15.0899 10.7115L12.5 12.2017ZM12.1411 12.9001C12.3669 12.7868 12.633 12.7868 12.8588 12.9001L14.7802 13.8645C15.1147 14.0574 15.4712 14.1553 15.8399 14.1553C16.8668 14.1553 17.9751 13.339 17.9751 12.0202C17.9751 11.4324 17.7462 10.8893 17.3306 10.4908C16.9291 10.1058 16.3858 9.88508 15.84 9.88508C15.4713 9.88508 15.1147 9.98294 14.7803 10.1758L12.8999 11.2616C12.6525 11.4045 12.5 11.6686 12.5 11.9543L12.5 12.2017L12.5 11.9543C12.4999 11.6686 12.3475 11.4045 12.1 11.2616L10.2196 10.1758C9.8852 9.98294 9.52868 9.88508 9.15996 9.88508C8.61416 9.88508 8.07086 10.1058 7.66937 10.4908C7.25373 10.8893 7.02488 11.4324 7.02488 12.0202C7.02488 13.339 8.13314 14.1553 9.16001 14.1553C9.52872 14.1553 9.88524 14.0574 10.2197 13.8645L12.1411 12.9001Z" fill="#0F0F0F"/>
<path opacity="0.72" d="M29.0976 17.098C28.4163 17.098 27.8003 16.9813 27.2496 16.748C26.7083 16.5147 26.279 16.1787 25.9616 15.74C25.6443 15.3013 25.481 14.7833 25.4716 14.186H27.5716C27.5996 14.5873 27.7396 14.9047 27.9916 15.138C28.253 15.3713 28.6076 15.488 29.0556 15.488C29.513 15.488 29.8723 15.3807 30.1336 15.166C30.395 14.942 30.5256 14.6527 30.5256 14.298C30.5256 14.0087 30.437 13.7707 30.2596 13.584C30.0823 13.3973 29.8583 13.2527 29.5876 13.15C29.3263 13.038 28.9623 12.9167 28.4956 12.786C27.861 12.5993 27.343 12.4173 26.9416 12.24C26.5496 12.0533 26.209 11.778 25.9196 11.414C25.6396 11.0407 25.4996 10.546 25.4996 9.93C25.4996 9.35133 25.6443 8.84733 25.9336 8.418C26.223 7.98867 26.629 7.662 27.1516 7.438C27.6743 7.20467 28.2716 7.088 28.9436 7.088C29.9516 7.088 30.7683 7.33533 31.3936 7.83C32.0283 8.31533 32.3783 8.99667 32.4436 9.874H30.2876C30.269 9.538 30.1243 9.26267 29.8536 9.048C29.5923 8.824 29.2423 8.712 28.8036 8.712C28.421 8.712 28.113 8.81 27.8796 9.006C27.6556 9.202 27.5436 9.48667 27.5436 9.86C27.5436 10.1213 27.6276 10.3407 27.7956 10.518C27.973 10.686 28.1876 10.826 28.4396 10.938C28.701 11.0407 29.065 11.162 29.5316 11.302C30.1663 11.4887 30.6843 11.6753 31.0856 11.862C31.487 12.0487 31.8323 12.3287 32.1216 12.702C32.411 13.0753 32.5556 13.5653 32.5556 14.172C32.5556 14.6947 32.4203 15.18 32.1496 15.628C31.879 16.076 31.4823 16.4353 30.9596 16.706C30.437 16.9673 29.8163 17.098 29.0976 17.098ZM36.3649 6.64V17H34.4049V6.64H36.3649ZM45.6614 12.954C45.6614 13.234 45.6427 13.486 45.6054 13.71H39.9354C39.982 14.27 40.178 14.7087 40.5234 15.026C40.8687 15.3433 41.2934 15.502 41.7974 15.502C42.5254 15.502 43.0434 15.1893 43.3514 14.564H45.4654C45.2414 15.3107 44.812 15.9267 44.1774 16.412C43.5427 16.888 42.7634 17.126 41.8394 17.126C41.0927 17.126 40.4207 16.9627 39.8234 16.636C39.2354 16.3 38.7734 15.8287 38.4374 15.222C38.1107 14.6153 37.9474 13.9153 37.9474 13.122C37.9474 12.3193 38.1107 11.6147 38.4374 11.008C38.764 10.4013 39.2214 9.93467 39.8094 9.608C40.3974 9.28133 41.074 9.118 41.8394 9.118C42.5767 9.118 43.2347 9.27667 43.8134 9.594C44.4014 9.91133 44.854 10.364 45.1714 10.952C45.498 11.5307 45.6614 12.198 45.6614 12.954ZM43.6314 12.394C43.622 11.89 43.44 11.4887 43.0854 11.19C42.7307 10.882 42.2967 10.728 41.7834 10.728C41.298 10.728 40.8874 10.8773 40.5514 11.176C40.2247 11.4653 40.024 11.8713 39.9494 12.394H43.6314ZM54.452 12.954C54.452 13.234 54.4333 13.486 54.396 13.71H48.726C48.7726 14.27 48.9686 14.7087 49.314 15.026C49.6593 15.3433 50.084 15.502 50.588 15.502C51.316 15.502 51.834 15.1893 52.142 14.564H54.256C54.032 15.3107 53.6026 15.9267 52.968 16.412C52.3333 16.888 51.554 17.126 50.63 17.126C49.8833 17.126 49.2113 16.9627 48.614 16.636C48.026 16.3 47.564 15.8287 47.228 15.222C46.9013 14.6153 46.738 13.9153 46.738 13.122C46.738 12.3193 46.9013 11.6147 47.228 11.008C47.5546 10.4013 48.012 9.93467 48.6 9.608C49.188 9.28133 49.8646 9.118 50.63 9.118C51.3673 9.118 52.0253 9.27667 52.604 9.594C53.192 9.91133 53.6446 10.364 53.962 10.952C54.2886 11.5307 54.452 12.198 54.452 12.954ZM52.422 12.394C52.4126 11.89 52.2306 11.4887 51.876 11.19C51.5213 10.882 51.0873 10.728 50.574 10.728C50.0886 10.728 49.678 10.8773 49.342 11.176C49.0153 11.4653 48.8146 11.8713 48.74 12.394H52.422ZM60.6246 17L57.9926 13.696V17H56.0326V6.64H57.9926V12.534L60.5966 9.244H63.1446L59.7286 13.136L63.1726 17H60.6246Z" fill="black"/>
</svg>
